<?xml version="1.0" standalone="no"?>
<!DOCTYPE svg PUBLIC "-//W3C//DTD SVG 20010904//EN"
 "http://www.w3.org/TR/2001/REC-SVG-20010904/DTD/svg10.dtd">
<svg version="1.0" xmlns="http://www.w3.org/2000/svg"
 width="469.000000pt" height="351.000000pt" viewBox="0 0 469.000000 351.000000"
 preserveAspectRatio="xMidYMid meet">

<g transform="translate(0.000000,351.000000) scale(0.100000,-0.100000)"
fill="#000000" stroke="none">
<path d="M0 1755 l0 -1755 2345 0 2345 0 0 1755 0 1755 -2345 0 -2345 0 0
-1755z m2090 1590 l0 -45 -50 0 -50 0 0 -70 0 -70 34 0 c33 0 34 -1 38 -45 l3
-45 -37 0 -38 0 0 -80 0 -80 50 0 50 0 0 -40 0 -40 -90 0 -90 0 0 280 0 280
90 0 90 0 0 -45z m479 -130 c13 -75 26 -133 28 -131 4 4 25 104 47 229 7 37 7
37 56 37 l50 0 0 -280 0 -280 -35 0 -35 0 -1 118 c0 64 -1 146 0 182 1 101
-14 54 -40 -129 -16 -109 -28 -165 -37 -168 -7 -3 -15 -3 -18 -1 -2 3 -17 88
-33 189 l-29 184 -1 -188 -1 -188 -35 3 -35 3 -1 270 c0 149 0 273 1 278 0 4
22 7 48 7 l48 0 23 -135z m1024 -485 c47 -52 30 -152 -30 -179 -106 -48 -214
66 -151 159 31 46 64 62 113 56 28 -3 48 -14 68 -36z m-2605 -27 c80 -68 46
-186 -58 -200 -52 -7 -81 8 -110 59 -29 52 -21 96 26 137 46 41 97 42 142 4z
m1467 -275 c342 -51 661 -295 775 -590 57 -149 78 -312 43 -350 -15 -17 -59
-18 -999 -18 -880 0 -984 2 -998 16 -12 11 -16 35 -16 88 0 202 128 458 304
609 245 210 556 296 891 245z m1667 -259 c29 -13 58 -62 58 -98 0 -38 -35 -79
-84 -102 -57 -26 -72 -24 -85 12 -11 32 -9 34 72 62 23 9 19 50 -5 55 -23 4
-329 -107 -352 -129 -22 -21 -15 -49 12 -49 11 0 36 7 56 15 l37 16 14 -33 c7
-18 11 -36 7 -39 -15 -14 -77 -29 -116 -29 -52 0 -81 20 -96 66 -29 87 17 128
221 198 41 14 97 34 124 45 56 23 103 26 137 10z m221 -526 c3 -5 8 -26 11
-48 l7 -40 -262 -98 c-144 -54 -263 -96 -265 -94 -2 2 -5 18 -6 37 -3 32 0 35
42 51 47 17 56 33 45 76 -5 23 -9 25 -62 21 -57 -3 -57 -3 -67 30 -5 18 -7 34
-4 37 5 5 390 31 495 34 34 0 64 -2 66 -6z m-3449 -40 c-3 -15 -7 -34 -10 -40
-2 -9 -23 -13 -59 -13 l-55 0 0 -40 c0 -37 2 -40 38 -49 20 -6 43 -11 50 -11
7 0 12 -15 12 -41 0 -41 0 -41 -32 -34 -18 4 -51 13 -73 20 -22 7 -94 27 -160
45 -66 18 -148 41 -182 51 -34 10 -69 19 -77 19 -22 0 -26 13 -18 61 l8 44
129 5 c72 3 199 6 283 8 l153 3 -7 -28z m764 -309 c59 -26 118 -47 132 -47 14
0 73 21 132 47 59 25 117 46 129 46 40 0 152 -45 180 -72 37 -38 101 -39 153
-3 20 14 45 25 55 25 10 0 21 3 25 7 12 12 100 43 122 43 12 0 76 -23 144 -51
l122 -50 120 50 c66 28 130 51 142 51 36 0 289 -107 308 -130 25 -31 3 -80
-35 -80 -12 0 -76 23 -144 51 l-122 52 -129 -52 c-71 -28 -137 -51 -147 -51
-9 0 -56 17 -104 39 -161 72 -141 71 -280 13 -67 -29 -130 -52 -140 -52 -9 0
-70 23 -135 50 -65 28 -123 50 -130 50 -6 0 -60 -20 -119 -45 -59 -25 -120
-48 -135 -51 -19 -4 -62 9 -147 45 -66 28 -125 51 -131 51 -6 0 -67 -23 -134
-52 -100 -42 -127 -49 -149 -42 -18 7 -27 18 -29 38 -4 28 21 66 42 66 6 0 63
23 126 50 63 27 127 50 143 50 15 0 76 -21 135 -46z m2740 -209 c36 -30 47
-75 28 -120 -15 -34 -37 -51 -88 -66 -25 -7 -30 -5 -38 17 -16 41 -12 51 23
60 37 11 52 53 20 56 -53 4 -89 -12 -145 -64 -75 -72 -153 -117 -204 -118 -35
0 -90 27 -108 54 -26 41 -21 103 12 136 24 24 108 59 117 48 1 -2 5 -19 9 -39
6 -34 5 -37 -23 -42 -16 -3 -36 -13 -45 -22 -23 -23 -4 -55 32 -55 34 0 70 22
152 93 81 71 112 86 177 87 40 0 58 -5 81 -25z m-2745 -45 c67 -27 128 -50
136 -50 9 0 73 23 142 52 l126 51 124 -51 c69 -29 131 -52 139 -52 8 0 72 23
141 51 l127 52 109 -46 c160 -67 145 -67 293 -7 l129 53 138 -58 c76 -31 146
-62 155 -69 30 -22 27 -68 -5 -85 -20 -11 -39 -6 -152 39 -89 35 -138 50 -156
46 -15 -3 -76 -26 -135 -51 l-109 -47 -128 51 c-70 28 -135 51 -143 51 -9 0
-71 -23 -138 -51 l-123 -50 -114 46 c-63 26 -126 49 -141 52 -19 4 -66 -11
-153 -47 l-126 -53 -122 51 c-158 65 -145 63 -197 37 -25 -12 -84 -36 -133
-55 -84 -32 -88 -32 -107 -15 -21 19 -26 51 -12 73 8 11 285 131 305 132 5 0
63 -22 130 -50z m-1253 -160 l0 -40 235 0 235 0 0 -40 0 -40 -235 0 -235 0 0
-40 0 -40 -45 0 -45 0 0 120 0 120 45 0 45 0 0 -40z m2729 -150 c49 -14 97
-49 129 -94 24 -36 27 -49 31 -149 4 -134 -6 -171 -61 -226 -76 -75 -38 -72
-979 -69 l-834 3 -48 28 c-26 15 -60 47 -75 69 -25 39 -27 50 -30 165 -3 117
-2 126 21 166 32 54 65 82 119 101 37 13 159 15 868 16 506 0 838 -4 859 -10z
m887 -185 c49 -8 166 -26 259 -40 94 -14 174 -30 178 -34 13 -13 3 -83 -13
-92 -14 -7 -499 -80 -528 -79 -9 0 -12 12 -10 38 3 33 6 37 33 40 70 6 75 10
75 51 l0 40 -55 6 -55 7 0 39 c0 45 -5 44 116 24z"/>
<path d="M2160 2330 c-315 -39 -581 -212 -709 -460 -46 -89 -81 -197 -81 -251
l0 -39 905 0 905 0 0 23 c0 40 -39 179 -66 236 -112 238 -350 416 -636 476
-89 18 -237 26 -318 15z m-225 -116 c20 -8 37 -48 29 -69 -3 -8 -44 -36 -92
-62 -147 -83 -258 -209 -277 -319 -9 -47 -30 -74 -60 -74 -91 0 -46 188 79
326 57 63 175 151 248 184 49 22 50 22 73 14z"/>
<path d="M4053 1563 c-48 -4 -53 -6 -53 -28 0 -13 3 -26 8 -28 4 -3 48 10 97
29 87 32 88 33 45 32 -25 -1 -69 -3 -97 -5z"/>
<path d="M570 1524 c80 -25 110 -29 110 -15 0 5 3 16 6 25 5 14 -6 16 -92 15
l-99 -1 75 -24z"/>
<path d="M1408 607 c-14 -12 -31 -32 -37 -44 -16 -31 -14 -158 4 -199 28 -66
-7 -64 906 -64 900 0 858 -3 891 58 18 35 17 181 -2 216 -31 58 4 56 -902 56
l-833 0 -27 -23z"/>
<path d="M4100 426 c0 -26 3 -28 28 -23 15 3 55 9 90 13 34 3 60 9 57 13 -4 3
-44 11 -91 16 l-84 10 0 -29z"/>
</g>
</svg>
