<?xml version="1.0" standalone="no"?>
<!DOCTYPE svg PUBLIC "-//W3C//DTD SVG 20010904//EN"
 "http://www.w3.org/TR/2001/REC-SVG-20010904/DTD/svg10.dtd">
<svg version="1.0" xmlns="http://www.w3.org/2000/svg"
 width="800.000000pt" height="599.000000pt" viewBox="0 0 800.000000 599.000000"
 preserveAspectRatio="xMidYMid meet">

<g transform="translate(0.000000,599.000000) scale(0.100000,-0.100000)"
fill="#000000" stroke="none">
<path d="M0 2995 l0 -2995 4000 0 4000 0 0 2995 0 2995 -4000 0 -4000 0 0
-2995z m3565 2715 l0 -65 -85 -5 -85 -5 -3 -122 -3 -122 63 -3 63 -3 3 -72 3
-72 -63 -3 -63 -3 -3 -132 -3 -132 88 -3 88 -3 0 -65 0 -65 -152 -3 -153 -3 0
476 0 476 153 -3 152 -3 0 -65z m787 -50 c4 -30 14 -91 22 -135 9 -44 23 -120
32 -170 22 -122 28 -126 43 -29 22 138 71 378 79 386 5 5 42 8 83 6 l74 -3 0
-475 0 -475 -49 -3 c-27 -2 -53 1 -57 5 -5 5 -10 143 -11 306 -1 197 -5 294
-12 287 -9 -9 -35 -159 -56 -323 -6 -44 -15 -98 -20 -120 -5 -23 -10 -60 -10
-83 0 -51 -19 -79 -47 -70 -17 5 -23 18 -28 59 -3 29 -10 72 -15 97 -5 25 -14
83 -20 130 -6 47 -15 105 -20 130 -5 25 -12 74 -16 110 -15 144 -23 91 -25
-170 -3 -333 -4 -339 -16 -351 -6 -6 -32 -9 -59 -7 l-49 3 -3 465 c-1 256 0
471 3 478 3 9 27 12 87 10 l83 -3 7 -55z m1699 -947 c41 -8 105 -77 119 -129
35 -123 -47 -242 -173 -252 -41 -3 -61 1 -96 20 -69 37 -102 84 -108 155 -6
68 11 115 59 164 33 32 111 61 147 53 13 -3 36 -8 52 -11z m-4403 -72 c151
-78 154 -278 5 -355 -44 -22 -145 -21 -181 1 -84 55 -120 154 -89 245 36 104
169 158 265 109z m2430 -481 c163 -18 377 -69 497 -119 611 -257 1004 -772
1039 -1366 5 -91 -11 -140 -51 -156 -15 -5 -690 -8 -1699 -7 l-1675 3 -19 25
c-48 63 -30 283 41 500 87 268 252 509 489 714 110 95 343 232 485 286 33 13
69 26 80 31 80 32 278 75 405 88 112 12 298 12 408 1z m2957 -461 c87 -43 122
-167 69 -245 -33 -48 -44 -57 -119 -93 -96 -46 -111 -47 -129 -9 -33 74 -29
88 24 102 14 4 44 17 68 28 40 20 43 24 40 57 -3 33 -6 36 -38 39 -20 2 -68
-9 -115 -27 -202 -74 -412 -149 -432 -155 -36 -11 -73 -46 -73 -70 0 -50 45
-59 135 -25 31 11 62 19 69 16 14 -6 48 -96 40 -108 -8 -13 -166 -59 -203 -59
-51 0 -122 38 -144 78 -48 83 -42 153 17 218 42 46 101 73 381 174 44 16 123
44 175 64 113 42 174 45 235 15z m362 -887 c13 -8 37 -120 32 -147 -3 -11 -22
-24 -54 -35 -48 -16 -390 -143 -430 -160 -11 -5 -54 -21 -95 -36 -41 -14 -79
-31 -84 -35 -6 -5 -19 -9 -31 -9 -12 0 -25 -4 -30 -8 -19 -17 -158 -63 -166
-55 -4 4 -10 33 -14 64 l-7 56 84 31 83 30 -1 44 c-1 23 -6 54 -11 68 -10 25
-12 25 -94 19 -46 -3 -89 -4 -95 -2 -10 3 -34 79 -34 107 0 16 54 23 295 37
209 11 615 36 630 37 6 1 15 -2 22 -6z m-5873 -84 c-4 -29 -11 -58 -16 -65 -6
-8 -45 -13 -101 -15 l-92 -3 -3 -66 -3 -66 38 -11 c21 -6 61 -17 88 -25 36 -9
50 -17 49 -30 0 -9 -1 -37 -2 -62 -2 -49 -9 -53 -66 -36 -253 75 -564 161
-580 161 -9 0 -24 4 -34 9 -9 5 -62 21 -117 36 -55 15 -107 30 -115 35 -16 8
-16 79 -1 137 l7 28 245 11 c134 6 349 11 477 12 l233 2 -7 -52z m1283 -512
c275 -113 232 -107 370 -51 65 27 141 59 168 71 150 67 159 67 278 19 48 -19
98 -35 112 -35 17 0 29 -9 40 -29 25 -50 80 -76 155 -75 68 0 114 17 160 59
14 12 45 25 70 29 24 4 49 10 55 15 5 4 37 18 70 31 33 13 64 27 69 32 30 26
154 -12 411 -126 97 -43 93 -44 222 9 65 27 141 59 168 71 100 44 128 54 155
54 30 0 92 -22 265 -95 61 -26 135 -56 165 -67 31 -11 69 -35 89 -55 28 -29
32 -40 27 -66 -8 -41 -49 -77 -86 -77 -16 0 -53 9 -82 21 -51 20 -74 29 -154
65 -82 36 -206 84 -218 84 -11 0 -182 -68 -291 -115 -82 -36 -138 -55 -164
-55 -15 0 -119 38 -232 85 -217 91 -221 92 -301 57 -24 -11 -90 -39 -148 -62
-58 -24 -125 -51 -149 -61 -24 -11 -56 -19 -71 -19 -23 0 -199 66 -305 115
-83 38 -142 56 -166 51 -14 -3 -55 -18 -90 -34 -35 -16 -124 -53 -196 -82
-127 -52 -134 -54 -180 -43 -41 9 -264 99 -370 148 -50 24 -54 23 -208 -44
-11 -5 -27 -11 -35 -14 -8 -3 -64 -26 -125 -51 -60 -25 -123 -46 -140 -46 -41
0 -85 45 -85 87 0 56 28 76 217 153 214 87 244 99 263 110 37 21 92 8 267 -64z
m4656 -335 c51 -22 80 -58 96 -118 30 -112 -42 -209 -170 -228 l-46 -7 -12 45
c-18 64 -13 78 37 92 54 17 72 31 72 61 0 49 -97 55 -170 11 -29 -18 -171
-135 -190 -157 -20 -23 -120 -86 -162 -102 -97 -37 -217 -19 -269 39 -52 60
-64 161 -26 228 24 43 103 94 145 95 13 0 33 5 44 11 30 16 46 -6 50 -70 l3
-53 -48 -13 c-56 -14 -87 -40 -87 -71 0 -40 27 -57 87 -52 61 5 116 39 230
142 88 79 147 120 209 145 64 26 149 27 207 2z m-4825 -30 c9 -5 53 -24 97
-42 44 -18 127 -52 185 -76 57 -23 117 -43 132 -43 24 0 86 20 153 49 11 5 36
16 55 24 79 35 239 97 247 97 9 0 117 -41 158 -60 89 -41 273 -110 295 -110
15 0 71 18 126 41 204 85 318 129 329 129 11 0 199 -76 250 -100 123 -60 215
-82 253 -60 20 11 296 124 360 147 l43 15 152 -62 c166 -68 183 -75 272 -114
83 -37 88 -40 103 -67 27 -51 -19 -128 -76 -129 -22 0 -116 35 -219 81 -24 10
-45 19 -49 19 -3 0 -42 16 -85 35 -44 19 -90 35 -103 35 -21 0 -105 -31 -197
-73 -88 -40 -237 -97 -255 -97 -19 0 -105 33 -254 98 -25 10 -67 27 -95 37
-27 10 -54 22 -59 27 -27 23 -83 5 -381 -123 -65 -27 -100 -39 -117 -39 -20 0
-226 81 -338 132 -87 41 -126 45 -181 20 -106 -48 -370 -152 -385 -152 -16 0
-248 91 -368 144 -32 14 -70 26 -83 26 -21 0 -134 -43 -280 -107 -76 -33 -165
-63 -186 -63 -33 0 -77 49 -77 87 0 57 26 75 262 172 123 51 232 97 243 101
27 12 52 12 73 1z m-1958 -351 l5 -65 398 -3 397 -2 0 -65 0 -65 -397 -2 -398
-3 -5 -65 -5 -65 -49 -3 c-27 -2 -60 -1 -73 3 l-23 5 0 194 c0 106 3 196 7
200 4 4 37 6 73 4 l65 -3 5 -65z m4642 -254 c87 -22 145 -55 192 -107 88 -98
112 -192 103 -399 -4 -105 -10 -135 -30 -183 -36 -79 -108 -153 -187 -191
l-65 -31 -1455 0 -1455 0 -62 29 c-76 35 -151 111 -190 191 -26 56 -27 63 -27
239 l-1 181 32 65 c53 108 132 174 243 204 80 21 2820 23 2902 2z m1523 -316
c137 -22 302 -47 395 -60 184 -25 296 -44 343 -57 25 -6 26 -158 1 -167 -10
-4 -67 -13 -128 -22 -172 -24 -198 -28 -598 -89 -98 -15 -184 -25 -193 -21
-13 4 -15 18 -13 63 l3 58 45 7 c25 4 66 10 93 13 l47 6 0 69 0 69 -32 6 c-18
3 -60 9 -93 13 l-60 7 -3 54 c-4 72 2 85 36 77 15 -3 86 -15 157 -26z"/>
<path d="M3745 3984 c-86 -8 -210 -27 -220 -34 -5 -4 -32 -10 -60 -14 -108
-13 -342 -111 -480 -200 -299 -193 -511 -461 -608 -771 -29 -92 -53 -235 -44
-259 6 -15 135 -16 1546 -16 847 0 1542 4 1545 8 6 11 -10 134 -25 187 -57
205 -102 303 -203 450 -275 393 -744 635 -1261 649 -82 2 -168 2 -190 0z
m-410 -237 c32 -46 11 -118 -39 -138 -47 -20 -194 -106 -251 -147 -117 -87
-228 -208 -277 -307 -27 -52 -58 -160 -58 -199 0 -31 -40 -66 -83 -73 -31 -5
-40 -1 -67 26 -31 30 -31 33 -25 99 14 141 94 303 215 435 119 130 341 284
480 332 42 14 83 3 105 -28z"/>
<path d="M7010 2674 c-8 -1 -54 -6 -102 -9 -82 -6 -88 -8 -88 -28 0 -39 12
-67 27 -67 20 0 275 90 288 102 8 7 -91 10 -125 2z"/>
<path d="M862 2641 c-9 -5 2 -12 35 -21 26 -7 88 -23 137 -37 117 -32 131 -29
131 22 l0 40 -145 2 c-80 2 -151 -1 -158 -6z"/>
<path d="M2464 1070 c-47 -11 -92 -47 -116 -93 -27 -52 -37 -229 -18 -315 16
-73 66 -123 139 -140 70 -16 2744 -18 2820 -1 54 11 114 60 133 108 17 44 22
224 8 291 -15 72 -65 129 -128 148 -45 14 -2783 16 -2838 2z"/>
<path d="M6996 773 c-7 -8 -8 -78 -1 -85 3 -3 29 -2 58 3 28 4 96 13 150 20
86 11 97 15 81 26 -10 7 -38 13 -63 13 -25 0 -62 4 -81 9 -49 13 -137 21 -144
14z"/>
</g>
</svg>
