<?xml version="1.0" standalone="no"?>
<!DOCTYPE svg PUBLIC "-//W3C//DTD SVG 20010904//EN"
 "http://www.w3.org/TR/2001/REC-SVG-20010904/DTD/svg10.dtd">
<svg version="1.0" xmlns="http://www.w3.org/2000/svg"
 width="403.000000pt" height="372.000000pt" viewBox="0 0 403.000000 372.000000"
 preserveAspectRatio="xMidYMid meet">

<g transform="translate(0.000000,372.000000) scale(0.100000,-0.100000)"
fill="#000000" stroke="none">
<path d="M150 3632 c-45 -22 -75 -79 -66 -127 12 -63 46 -83 319 -189 162 -63
259 -105 261 -115 3 -9 34 -176 70 -371 36 -195 95 -517 131 -715 37 -198 86
-466 110 -596 23 -130 50 -250 60 -268 19 -37 66 -61 120 -61 19 0 35 -3 35
-8 0 -4 -29 -88 -65 -187 -64 -177 -75 -228 -55 -266 17 -30 64 -49 125 -49
l55 0 -30 -42 c-108 -149 -67 -379 87 -493 68 -49 133 -69 225 -68 63 0 88 6
140 30 202 95 275 337 158 526 l-29 47 395 0 395 0 -25 -32 c-13 -18 -34 -62
-46 -98 -87 -256 137 -518 402 -470 255 47 385 325 254 543 l-33 55 74 4 c70
3 77 6 105 37 26 29 29 40 25 73 -7 49 -30 75 -76 87 -21 6 -440 9 -996 9
l-960 -1 2 24 c1 13 22 81 48 151 l47 128 944 2 944 3 30 30 c27 27 61 125
285 825 140 437 258 813 261 835 6 50 -22 100 -69 119 -22 10 -183 20 -522 35
-269 12 -807 35 -1194 52 -542 23 -710 28 -731 19 -96 -40 -106 -163 -18 -215
32 -18 168 -26 1588 -84 494 -21 651 -29 657 -35 3 -3 -72 -238 -353 -1113
l-75 -233 -959 0 -960 0 -5 23 c-3 12 -46 245 -95 517 -279 1522 -252 1389
-283 1419 -30 27 -621 261 -661 261 -6 0 -27 -8 -46 -18z m1458 -3059 c97 -72
97 -214 0 -273 -40 -24 -116 -27 -157 -5 -155 80 -91 316 82 302 27 -2 60 -13
75 -24z m1326 7 c150 -73 100 -300 -66 -300 -86 0 -151 54 -164 135 -13 90 66
184 155 185 19 0 53 -9 75 -20z"/>
</g>
</svg>
